<?xml version="1.0" encoding="utf-8"?>
<!DOCTYPE svg PUBLIC "-//W3C//DTD SVG 1.1//EN" "http://www.w3.org/Graphics/SVG/1.1/DTD/svg11.dtd">
<svg version="1.1" id="applescript" xmlns="http://www.w3.org/2000/svg" xmlns:xlink="http://www.w3.org/1999/xlink" x="0px"
	 y="0px" width="720px" height="720px" viewBox="0 0 720 720" enable-background="new 0 0 720 720" xml:space="preserve">
<path id="blue" fill="#009DDC" d="M608.727,432.816l-3.885-6.729l-6.02-10.426L286.096,596.215l6.02,10.428
	c19.942,34.543,8.108,78.711-26.436,98.656l62.545-36.111l62.546-36.111l188.003-108.543
	C611.039,505.902,623.485,466.133,608.727,432.816L608.727,432.816z"/>
<path id="purple" fill="#963D97" d="M556.7,342.687l42.13,72.967L286.114,596.207l-42.129-72.967L556.7,342.687z"/>
<path id="red" fill="#E03A3E" d="M514.573,269.718l42.129,72.967L243.984,523.238l-42.129-72.967L514.573,269.718z"/>
<path id="orange" fill="#F5821F" d="M472.44,196.748l42.129,72.969l-312.718,180.55l-42.129-72.967L472.44,196.748z"/>
<path id="green" fill="#61BB46" d="M137.997,195.258c-34.543,19.943-46.378,64.112-26.437,98.657l6.02,10.425l124.209-71.713
	c-1.406-3.78-3.124-7.438-5.138-10.932C216.709,187.149,172.539,175.314,137.997,195.258z"/>
<path id="yellow" fill="#FDB827" d="M241.789,232.625L117.58,304.339l42.129,72.968l312.727-180.554l-12.037-20.848L210.218,320.349
	C241.206,302.455,253.902,265.069,241.789,232.625L241.789,232.625z"/>
<path id="backside-top" fill="#FFFFFF" d="M549.381,41.139C529.437,6.595,485.268-5.24,450.723,14.704l-62.545,36.11
	L137.997,195.258c34.543-19.944,78.713-8.109,98.655,26.435c2.013,3.495,3.731,7.151,5.138,10.931v0.001
	c12.111,32.444-0.582,69.829-31.572,87.724l250.181-144.443l0.366-0.21l62.179-35.9C557.488,119.851,569.323,75.682,549.381,41.139z
	"/>
<path id="backside-bottom" fill="#FFFFFF" d="M292.115,606.641l-36.11-62.547l-62.545,36.111
	c-34.544,19.945-46.379,64.111-26.437,98.658c19.943,34.543,64.113,46.377,98.657,26.436
	C300.224,685.354,312.058,641.186,292.115,606.641L292.115,606.641z"/>
<path id="outlines" fill="#231F20" d="M613.311,430.785l-7.646-13.281l0.011-0.006l-42.129-72.968l-42.128-72.97l-3.324-5.763
	l-1.69-2.925l-42.131-72.97l-7.021-12.161l58.201-33.603c17.865-10.316,30.649-26.972,35.987-46.899
	c5.341-19.928,2.601-40.741-7.715-58.608C539.967,14.803,514.31,0,486.769,0c-13.482,0-26.814,3.583-38.554,10.361L385.67,46.472
	l-0.002-0.004L135.492,190.911v0.001l-0.007,0.004l0,0c-17.864,10.313-30.644,26.968-35.982,46.896
	c-5.341,19.928-2.602,40.742,7.715,58.608l3.511,6.082l0,0l47.146,81.656l37.113,64.283l0,0l42.13,72.969l12.035,20.848
	l-58.199,33.604c-36.883,21.293-49.564,68.623-28.271,105.508c13.756,23.828,39.412,38.629,66.956,38.631h0.002
	c13.479,0,26.812-3.582,38.551-10.359c0.005-0.004,0.012-0.008,0.018-0.01L581.28,528.875
	C615.548,509.092,629.319,466.922,613.311,430.785z M591.972,413.828l-18.1,10.449l-285.94,165.088l-30.092-52.123h-0.001
	l-7.021-12.16L536.76,359.995l18.099-10.45L591.972,413.828z M453.231,19.048c10.219-5.899,21.812-9.017,33.538-9.017
	c23.968,0,46.296,12.88,58.269,33.616c8.976,15.545,11.359,33.656,6.712,50.996c-4.646,17.34-15.768,31.832-31.312,40.808
	L240.803,296.897c8.573-14.588,12.204-31.79,9.944-48.962c-0.573-4.36-1.529-8.716-2.878-13.029l0.102-0.06l-1.466-3.931
	c-0.006-0.015-0.011-0.032-0.019-0.046c-0.002-0.005-0.004-0.011-0.006-0.016l-2.065-5.537l-0.201,0.116
	c-0.981-2.128-2.05-4.216-3.22-6.249c-13.757-23.827-39.414-38.629-66.956-38.629c-0.185,0-0.365,0-0.551,0.002L453.231,19.048z
	 M115.903,291.408c-8.975-15.547-11.358-33.659-6.713-50.999c4.647-17.34,15.768-31.833,31.313-40.808
	c10.215-5.899,21.812-9.017,33.536-9.017c5.244,0,10.408,0.616,15.402,1.797c17.839,4.215,33.513,15.62,42.864,31.819
	c0.537,0.93,1.043,1.875,1.534,2.83c0.147,0.29,0.289,0.584,0.434,0.876c0.349,0.701,0.687,1.406,1.007,2.118
	c0.069,0.149,0.135,0.3,0.2,0.45l-51.325,29.634l-64.741,37.38L115.903,291.408z M124.431,306.173l44.734-25.828l69.769-40.28
	c0.004,0.015,0.009,0.03,0.015,0.045c0.104,0.377,0.19,0.755,0.287,1.133c0.146,0.569,0.298,1.139,0.429,1.708
	c0.096,0.42,0.176,0.84,0.265,1.262c0.111,0.531,0.227,1.061,0.323,1.592c0.081,0.434,0.146,0.868,0.217,1.301
	c0.086,0.519,0.173,1.037,0.245,1.556c0.062,0.441,0.112,0.883,0.165,1.325c0.062,0.512,0.124,1.023,0.172,1.534
	c0.043,0.444,0.077,0.89,0.11,1.335c0.039,0.508,0.076,1.016,0.103,1.524c0.024,0.446,0.04,0.892,0.055,1.337
	c0.018,0.505,0.031,1.009,0.036,1.514c0.004,0.446,0.003,0.892-0.001,1.337c-0.006,0.503-0.016,1.006-0.03,1.509
	c-0.015,0.442-0.032,0.886-0.056,1.327c-0.025,0.502-0.06,1.004-0.097,1.506c-0.033,0.439-0.066,0.877-0.109,1.316
	c-0.048,0.502-0.104,1.003-0.163,1.504c-0.051,0.434-0.103,0.867-0.162,1.298c-0.068,0.503-0.148,1.004-0.229,1.505
	c-0.068,0.425-0.135,0.852-0.211,1.275c-0.091,0.505-0.194,1.009-0.298,1.513c-0.084,0.414-0.167,0.83-0.26,1.242
	c-0.115,0.512-0.243,1.022-0.37,1.532c-0.1,0.398-0.192,0.797-0.3,1.193c-0.142,0.531-0.301,1.057-0.457,1.583
	c-0.109,0.371-0.21,0.742-0.326,1.11c-0.188,0.594-0.393,1.183-0.596,1.772c-0.101,0.293-0.193,0.59-0.299,0.883
	c-0.314,0.873-0.647,1.738-0.999,2.598c-0.098,0.241-0.208,0.477-0.31,0.716c-0.264,0.621-0.526,1.24-0.808,1.853
	c-0.156,0.342-0.327,0.679-0.488,1.018c-0.241,0.503-0.481,1.009-0.735,1.507c-0.188,0.364-0.384,0.724-0.578,1.084
	c-0.248,0.466-0.495,0.932-0.753,1.392c-0.208,0.37-0.428,0.734-0.644,1.1c-0.263,0.442-0.521,0.884-0.792,1.321
	c-0.23,0.369-0.468,0.733-0.705,1.098c-0.275,0.424-0.552,0.848-0.836,1.266c-0.249,0.365-0.504,0.724-0.76,1.083
	c-0.291,0.409-0.583,0.816-0.883,1.218c-0.268,0.357-0.539,0.71-0.812,1.063c-0.308,0.395-0.618,0.789-0.936,1.177
	c-0.283,0.348-0.568,0.692-0.858,1.035c-0.324,0.382-0.652,0.761-0.985,1.137c-0.3,0.337-0.603,0.672-0.907,1.004
	c-0.341,0.37-0.689,0.734-1.04,1.097c-0.312,0.325-0.629,0.65-0.95,0.969c-0.359,0.358-0.729,0.71-1.099,1.062
	c-0.326,0.31-0.652,0.621-0.985,0.924c-0.383,0.349-0.773,0.69-1.166,1.03c-0.336,0.293-0.671,0.589-1.015,0.876
	c-0.407,0.342-0.825,0.671-1.241,1.003c-0.344,0.274-0.684,0.551-1.034,0.818c-0.438,0.336-0.89,0.662-1.34,0.988
	c-0.343,0.25-0.68,0.503-1.028,0.746c-0.495,0.347-1.003,0.679-1.51,1.013c-0.316,0.209-0.627,0.425-0.948,0.63
	c-0.727,0.463-1.468,0.908-2.218,1.348c-0.107,0.062-0.212,0.131-0.32,0.194l5.016,8.687l0,0l0,0l0,0l0.006-0.004l0.017-0.008
	L366.1,236.138l92.461-53.382l7.021,12.162l-12.336,7.123L161.544,370.457L124.431,306.173z M166.56,379.143l291.704-168.416
	l12.336-7.123l37.114,64.283l-304.04,175.539L166.56,379.143z M245.802,516.396l-37.114-64.285l304.041-175.535l37.114,64.283
	l-18.1,10.448L245.802,516.396z M263.172,700.953c-10.217,5.9-21.812,9.018-33.534,9.018h-0.002
	c-23.97,0-46.297-12.881-58.27-33.615c-18.526-32.094-7.492-73.275,24.6-91.805l58.202-33.605l10.972,19.004l22.631,39.201
	C306.3,641.242,295.263,682.426,263.172,700.953z M576.264,520.188L296.112,681.936c0.311-0.525,0.604-1.062,0.901-1.596
	c0.098-0.176,0.2-0.35,0.296-0.523c0.508-0.932,0.99-1.873,1.458-2.824c0.143-0.287,0.28-0.578,0.418-0.867
	c0.384-0.803,0.752-1.607,1.108-2.424c0.089-0.203,0.183-0.404,0.271-0.607c0.416-0.977,0.806-1.957,1.18-2.947
	c0.109-0.289,0.216-0.58,0.32-0.871c0.301-0.824,0.588-1.65,0.86-2.484c0.074-0.23,0.153-0.457,0.226-0.688
	c0.32-1.01,0.617-2.025,0.897-3.051c0.076-0.283,0.147-0.566,0.223-0.854c0.22-0.846,0.426-1.695,0.618-2.547
	c0.056-0.25,0.117-0.498,0.169-0.748c0.223-1.039,0.423-2.082,0.604-3.131c0.047-0.271,0.088-0.551,0.133-0.824
	c0.14-0.863,0.264-1.73,0.372-2.6c0.034-0.266,0.072-0.531,0.104-0.801c0.124-1.059,0.223-2.119,0.303-3.186
	c0.021-0.262,0.032-0.523,0.049-0.787c0.059-0.879,0.1-1.762,0.125-2.645c0.009-0.277,0.021-0.557,0.025-0.836
	c0.021-1.072,0.02-2.146-0.004-3.219c-0.006-0.244-0.02-0.49-0.026-0.734c-0.028-0.896-0.075-1.789-0.133-2.684
	c-0.021-0.289-0.036-0.576-0.059-0.865c-0.084-1.076-0.189-2.154-0.319-3.232c-0.027-0.219-0.061-0.436-0.088-0.654
	c-0.119-0.908-0.253-1.816-0.405-2.725c-0.049-0.295-0.096-0.588-0.146-0.883c-0.192-1.076-0.403-2.148-0.644-3.219
	c-0.042-0.189-0.091-0.377-0.134-0.564c-0.214-0.924-0.446-1.844-0.695-2.762c-0.08-0.297-0.158-0.592-0.243-0.887
	c-0.303-1.064-0.622-2.131-0.974-3.189c-0.049-0.145-0.104-0.293-0.154-0.441c-0.316-0.938-0.656-1.871-1.013-2.805
	c-0.111-0.293-0.224-0.588-0.341-0.881c-0.415-1.049-0.847-2.094-1.312-3.131c-0.044-0.102-0.094-0.197-0.14-0.297
	c-0.434-0.959-0.894-1.908-1.37-2.855c-0.145-0.287-0.291-0.574-0.438-0.859c-0.521-1-1.055-1.996-1.624-2.982
	c-0.019-0.031-0.031-0.062-0.05-0.092l-3.512-6.082l304.039-175.537l7.259,12.572C618.005,466.471,606.005,503.018,576.264,520.188z
	"/>
</svg>
