<svg xmlns="http://www.w3.org/2000/svg" width="1024" height="1024" viewBox="0 0 1024 1024"><path d="M874.545 612.672l-10.875-18.889.018-.008-59.918-103.776-59.918-103.779-4.725-8.195-2.404-4.16-59.918-103.779-9.984-17.295L749.592 205c25.408-14.671 43.59-38.36 51.182-66.701 7.596-28.342 3.699-57.943-10.973-83.354C770.233 21.053 733.742 0 694.574 0c-19.178 0-38.139 5.096-54.832 14.735l-88.953 51.358-.004-.006-355.804 205.432v.001l-.014.005c-25.403 14.667-43.582 38.354-51.172 66.697-7.596 28.341-3.703 57.943 10.972 83.353l4.993 8.65 67.054 116.132 52.779 91.426 59.921 103.775 17.114 29.65-82.77 47.793c-52.458 30.283-70.491 97.598-40.208 150.055 19.563 33.891 56.053 54.939 95.226 54.941h.003c19.171 0 38.133-5.094 54.828-14.732a.082.082 0 0 1 .028-.014l445.252-257.076c48.74-28.134 68.324-88.109 45.558-139.503zm-30.349-24.115l-25.744 14.859-406.668 234.793-42.797-74.131h-.001L359 746.783l406.672-234.791 25.74-14.862 52.784 91.427zM646.875 27.091c14.533-8.39 31.021-12.824 47.699-12.824 34.086 0 65.842 18.318 82.869 47.809 12.77 22.108 16.156 47.866 9.547 72.528-6.607 24.661-22.426 45.272-44.531 58.038L344.756 422.253a109.288 109.288 0 0 0 14.144-69.635 110.18 110.18 0 0 0-4.094-18.53l.146-.085-2.084-5.591c-.009-.021-.017-.046-.029-.065a.21.21 0 0 1-.008-.023l-2.936-7.875-.285.166a110.932 110.932 0 0 0-4.579-8.888c-19.568-33.887-56.056-54.939-95.227-54.939-.265 0-.52 0-.786.003l397.857-229.7zM167.121 414.448c-12.764-22.112-16.151-47.871-9.547-72.532 6.609-24.662 22.428-45.274 44.535-58.039 14.527-8.389 31.021-12.824 47.695-12.824 7.458 0 14.801.876 21.903 2.556 25.371 5.995 47.665 22.215 60.962 45.254a94.054 94.054 0 0 1 2.182 4.025c.207.412.411.831.617 1.246a78.78 78.78 0 0 1 1.717 3.653l-72.995 42.146-92.074 53.163-4.995-8.648zm12.129 20.999l63.622-36.733 99.227-57.287a.354.354 0 0 0 .023.064c.146.535.268 1.074.406 1.611.208.81.426 1.619.611 2.43.137.597.25 1.193.376 1.794.158.755.325 1.509.459 2.265.115.617.207 1.234.31 1.85.122.738.246 1.476.349 2.213.087.628.16 1.256.234 1.885.088.729.177 1.455.245 2.182.061.631.109 1.266.156 1.898.057.723.106 1.445.146 2.167.035.635.057 1.269.078 1.901a81.605 81.605 0 0 1 .051 4.054c-.008.715-.021 1.431-.041 2.146-.022.627-.046 1.26-.082 1.887a76.943 76.943 0 0 1-.137 2.142 78.256 78.256 0 0 1-.388 4.011 93.009 93.009 0 0 1-.229 1.846 67.04 67.04 0 0 1-.325 2.142c-.098.604-.191 1.211-.3 1.813a89.723 89.723 0 0 1-.423 2.151c-.12.588-.238 1.181-.373 1.767-.161.729-.343 1.453-.523 2.179-.145.565-.272 1.133-.429 1.696-.201.756-.428 1.504-.65 2.252-.152.527-.299 1.056-.461 1.578-.268.846-.561 1.684-.85 2.521-.143.417-.272.839-.425 1.256a84.423 84.423 0 0 1-1.421 3.695c-.14.343-.295.679-.44 1.019-.378.883-.749 1.764-1.151 2.635-.22.487-.465.967-.691 1.45-.343.716-.686 1.435-1.046 2.144-.269.518-.546 1.029-.822 1.541-.353.662-.704 1.326-1.071 1.979-.296.526-.607 1.044-.915 1.565-.376.628-.741 1.257-1.126 1.878-.328.524-.668 1.042-1.003 1.562-.392.604-.788 1.206-1.188 1.801-.354.52-.72 1.029-1.083 1.539a89.922 89.922 0 0 1-1.256 1.733c-.381.507-.768 1.009-1.154 1.513a85.61 85.61 0 0 1-1.333 1.672c-.403.496-.806.985-1.218 1.473-.461.543-.929 1.082-1.401 1.617-.426.479-.859.957-1.29 1.429a90.001 90.001 0 0 1-1.479 1.56 79.772 79.772 0 0 1-2.915 2.889c-.464.441-.929.884-1.401 1.313-.544.497-1.097.981-1.658 1.465-.478.417-.954.839-1.442 1.246-.579.486-1.174.954-1.766 1.427-.488.39-.972.782-1.471 1.162-.623.479-1.266.942-1.906 1.406-.486.355-.967.715-1.459 1.061-.705.494-1.427.967-2.149 1.441-.447.297-.893.604-1.347.896-1.036.658-2.09 1.291-3.156 1.916-.15.089-.303.187-.453.276l7.134 12.354.008-.006.026-.01 218.097-125.927 131.5-75.921 9.984 17.297-17.545 10.13-414.867 239.525-52.783-91.426zm59.916 103.778l414.868-239.523 17.545-10.13 52.783 91.424L291.951 630.65l-52.785-91.425zm112.7 195.205l-52.785-91.428 432.414-249.648 52.783 91.424-25.742 14.859-406.67 234.793zm24.704 262.48c-14.531 8.393-31.022 12.826-47.693 12.826h-.002c-34.09 0-65.845-18.32-82.872-47.807-26.349-45.646-10.656-104.215 34.986-130.568l82.775-47.791 15.604 27.025 32.186 55.754c26.354 45.639 10.656 104.212-34.984 130.561zm445.284-257.088L423.417 969.863c.444-.744.859-1.51 1.282-2.27.139-.25.285-.498.421-.742a110.492 110.492 0 0 0 2.074-4.018c.203-.408.397-.822.594-1.232a110.422 110.422 0 0 0 1.576-3.447c.126-.287.26-.574.385-.863a109.459 109.459 0 0 0 2.134-5.425c.428-1.172.836-2.35 1.224-3.533.103-.326.215-.65.32-.98a111.53 111.53 0 0 0 1.277-4.34c.104-.4.207-.803.315-1.215.312-1.205.605-2.41.88-3.623.078-.354.167-.707.239-1.062.316-1.479.602-2.961.858-4.453.066-.387.125-.785.191-1.172.198-1.229.375-2.461.528-3.699.046-.379.101-.754.147-1.141.177-1.506.316-3.014.431-4.529.031-.375.046-.744.071-1.119.085-1.25.143-2.506.178-3.764.014-.393.029-.791.035-1.189.031-1.521.031-3.051-.005-4.578-.008-.346-.028-.697-.038-1.043a103.992 103.992 0 0 0-.189-3.818c-.028-.41-.051-.818-.083-1.229-.12-1.531-.27-3.061-.454-4.594-.038-.314-.086-.623-.125-.932a107.096 107.096 0 0 0-.576-3.875l-.207-1.26a102.297 102.297 0 0 0-.918-4.576c-.061-.268-.129-.537-.19-.801a107.102 107.102 0 0 0-.989-3.932 56.034 56.034 0 0 0-.343-1.262 109.668 109.668 0 0 0-1.388-4.533c-.069-.207-.147-.418-.218-.627-.448-1.332-.933-2.66-1.441-3.988a108.623 108.623 0 0 0-2.349-5.709c-.064-.145-.136-.277-.2-.422a108.379 108.379 0 0 0-1.948-4.059 110.654 110.654 0 0 0-2.933-5.463c-.026-.043-.044-.09-.071-.133l-4.994-8.648 432.407-249.65 10.324 17.879c19.572 44.632 2.504 96.608-39.795 121.028z"/></svg>