<?xml version="1.0" encoding="utf-8"?>
<!DOCTYPE svg PUBLIC "-//W3C//DTD SVG 1.1//EN" "http://www.w3.org/Graphics/SVG/1.1/DTD/svg11.dtd">
<!-- 2016 (c) Jan T. Sott | Licensed under the CC-BY-SA 4.0 license | https://github.com/idleberg/applescript-svg-icon -->
<svg version="1.1" id="applescript" xmlns="http://www.w3.org/2000/svg" xmlns:xlink="http://www.w3.org/1999/xlink" x="0px"
	 y="0px" width="1024px" height="1024px" viewBox="0 0 1024 1024" enable-background="new 0 0 1024 1024" xml:space="preserve">
<rect x="0" fill="#FFFFFF" width="1024" height="1024"/>
<path id="blue" fill="#009DDC" d="M868.024,615.561l-5.523-9.57l-8.562-14.828L409.172,847.949l8.562,14.83
	c28.36,49.129,11.53,111.943-37.6,140.312l88.953-51.357l88.954-51.357l267.382-154.373
	C871.312,719.506,889.014,662.943,868.024,615.561L868.024,615.561z"/>
<path id="purple" fill="#963D97" d="M794.031,487.377l59.918,103.775L409.198,847.938l-59.917-103.773L794.031,487.377z"/>
<path id="red" fill="#E03A3E" d="M734.116,383.599l59.917,103.775L349.28,744.16l-59.917-103.775L734.116,383.599z"/>
<path id="orange" fill="#F5821F" d="M674.194,279.819l59.916,103.778L289.357,640.379l-59.916-103.775L674.194,279.819z"/>
<path id="green" fill="#61BB46" d="M198.543,277.7c-49.128,28.364-65.96,91.182-37.6,140.312l8.562,14.827l176.653-101.992
	c-2-5.376-4.443-10.579-7.31-15.548C310.49,266.167,247.669,249.335,198.543,277.7z"/>
<path id="yellow" fill="#FDB827" d="M346.158,330.844L169.505,432.837l59.917,103.776l444.767-256.787l-17.119-29.65
	L301.257,455.607C345.329,430.158,363.384,376.987,346.158,330.844L346.158,330.844z"/>
<path id="backside-top" fill="#FFFFFF" d="M783.622,58.509c-28.365-49.13-91.185-65.962-140.314-37.597l-88.952,51.356
	L198.543,277.7c49.127-28.365,111.947-11.533,140.308,37.597c2.864,4.971,5.308,10.17,7.31,15.546v0.001
	c17.223,46.143-0.828,99.312-44.903,124.763l355.812-205.43l0.521-0.299l88.433-51.058
	C795.151,170.455,811.983,107.637,783.622,58.509z"/>
<path id="backside-bottom" fill="#FFFFFF" d="M417.732,862.777l-51.355-88.955l-88.953,51.357
	c-49.129,28.365-65.961,91.182-37.6,140.312c28.364,49.129,91.184,65.959,140.312,37.598
	C429.265,974.725,446.096,911.908,417.732,862.777L417.732,862.777z"/>
<path id="outlines" fill="#231F20" d="M874.544,612.672l-10.875-18.889l0.017-0.01L803.77,489.998l-59.917-103.779l-4.727-8.197
	l-2.404-4.16l-59.919-103.78l-9.985-17.295l82.774-47.791c25.408-14.671,43.59-38.36,51.182-66.701
	c7.597-28.342,3.698-57.943-10.973-83.354C770.233,21.053,733.743,0,694.573,0c-19.176,0-38.137,5.096-54.832,14.735l-88.952,51.358
	l-0.003-0.006L194.981,271.518v0.001l-0.012,0.006l0,0c-25.405,14.667-43.582,38.354-51.174,66.696
	c-7.596,28.342-3.701,57.944,10.972,83.354l4.993,8.65l0,0l67.054,116.134l52.781,91.424l0,0l59.919,103.777l17.115,29.65
	l-82.771,47.793c-52.457,30.283-70.492,97.598-40.208,150.057c19.563,33.889,56.053,54.938,95.227,54.939h0.003
	c19.171,0,38.133-5.094,54.828-14.732c0.007-0.006,0.018-0.012,0.026-0.014l445.253-257.076
	C877.727,724.041,897.311,664.066,874.544,612.672z M844.195,588.555l-25.742,14.861L411.783,838.207l-42.797-74.129h-0.001
	l-9.986-17.295l406.673-234.791l25.74-14.862L844.195,588.555z M646.875,27.09c14.533-8.389,31.021-12.823,47.698-12.823
	c34.088,0,65.843,18.318,82.871,47.809c12.767,22.108,16.154,47.866,9.546,72.527c-6.607,24.661-22.426,45.272-44.532,58.039
	L344.755,422.253c12.193-20.748,17.357-45.212,14.144-69.635c-0.815-6.201-2.176-12.396-4.094-18.53l0.146-0.085l-2.084-5.591
	c-0.009-0.021-0.017-0.046-0.028-0.065c-0.003-0.007-0.006-0.016-0.008-0.023l-2.938-7.875l-0.285,0.165
	c-1.396-3.027-2.915-5.997-4.579-8.887c-19.566-33.888-56.056-54.94-95.227-54.94c-0.264,0-0.52,0-0.785,0.003L646.875,27.09z
	 M167.119,414.447c-12.764-22.112-16.153-47.871-9.547-72.532c6.609-24.662,22.427-45.273,44.535-58.038
	c14.527-8.39,31.021-12.824,47.695-12.824c7.458,0,14.802,0.876,21.904,2.555c25.371,5.996,47.664,22.215,60.962,45.254
	c0.764,1.322,1.483,2.667,2.182,4.025c0.208,0.412,0.411,0.831,0.617,1.246c0.497,0.997,0.979,1.999,1.433,3.012
	c0.099,0.212,0.192,0.427,0.284,0.64l-72.995,42.146l-92.075,53.163L167.119,414.447z M179.249,435.446l63.622-36.733l99.227-57.287
	c0.005,0.022,0.013,0.042,0.022,0.064c0.146,0.536,0.27,1.074,0.407,1.612c0.208,0.809,0.425,1.62,0.61,2.429
	c0.137,0.597,0.25,1.194,0.376,1.794c0.158,0.756,0.324,1.509,0.459,2.265c0.116,0.617,0.207,1.234,0.31,1.85
	c0.122,0.738,0.246,1.475,0.349,2.213c0.087,0.627,0.16,1.256,0.235,1.884c0.087,0.729,0.176,1.455,0.244,2.182
	c0.061,0.631,0.109,1.266,0.156,1.898c0.056,0.722,0.107,1.445,0.146,2.167c0.035,0.635,0.057,1.269,0.078,1.901
	c0.025,0.719,0.044,1.435,0.051,2.153c0.005,0.634,0.004,1.269-0.001,1.901c-0.008,0.715-0.022,1.431-0.042,2.146
	c-0.022,0.628-0.046,1.26-0.081,1.887c-0.035,0.715-0.085,1.429-0.138,2.143c-0.047,0.625-0.095,1.247-0.156,1.872
	c-0.068,0.714-0.147,1.426-0.232,2.139c-0.071,0.618-0.146,1.233-0.229,1.846c-0.096,0.716-0.209,1.429-0.325,2.141
	c-0.097,0.604-0.192,1.211-0.3,1.813c-0.129,0.718-0.276,1.435-0.423,2.152c-0.12,0.588-0.238,1.18-0.371,1.766
	c-0.163,0.729-0.344,1.454-0.525,2.179c-0.143,0.566-0.272,1.133-0.428,1.696c-0.201,0.755-0.428,1.503-0.65,2.251
	c-0.153,0.528-0.299,1.056-0.462,1.579c-0.268,0.845-0.56,1.683-0.849,2.52c-0.144,0.417-0.274,0.839-0.425,1.255
	c-0.446,1.242-0.919,2.473-1.421,3.695c-0.14,0.343-0.297,0.679-0.44,1.019c-0.376,0.884-0.749,1.764-1.15,2.635
	c-0.221,0.487-0.465,0.966-0.692,1.449c-0.343,0.715-0.686,1.435-1.046,2.143c-0.269,0.518-0.546,1.029-0.822,1.542
	c-0.353,0.663-0.704,1.325-1.071,1.98c-0.296,0.526-0.607,1.044-0.915,1.564c-0.375,0.629-0.741,1.257-1.126,1.879
	c-0.328,0.524-0.667,1.042-1.003,1.562c-0.392,0.604-0.786,1.206-1.188,1.8c-0.354,0.519-0.719,1.03-1.082,1.54
	c-0.414,0.582-0.829,1.161-1.255,1.733c-0.381,0.507-0.768,1.009-1.154,1.512c-0.438,0.562-0.879,1.122-1.332,1.673
	c-0.403,0.495-0.807,0.985-1.22,1.472c-0.461,0.543-0.929,1.082-1.401,1.617c-0.426,0.48-0.858,0.957-1.29,1.429
	c-0.485,0.525-0.979,1.043-1.479,1.56c-0.443,0.462-0.896,0.924-1.352,1.378c-0.51,0.509-1.036,1.01-1.562,1.511
	c-0.464,0.441-0.929,0.883-1.401,1.313c-0.544,0.497-1.099,0.981-1.659,1.465c-0.478,0.417-0.954,0.837-1.442,1.246
	c-0.579,0.486-1.175,0.954-1.766,1.426c-0.489,0.39-0.972,0.783-1.471,1.163c-0.622,0.479-1.265,0.942-1.905,1.406
	c-0.488,0.355-0.967,0.715-1.461,1.061c-0.704,0.494-1.426,0.966-2.147,1.441c-0.449,0.297-0.893,0.604-1.348,0.896
	c-1.035,0.659-2.089,1.292-3.155,1.917c-0.151,0.088-0.302,0.186-0.454,0.276l7.133,12.354l0,0l0,0l0,0l0.008-0.005l0.025-0.011
	l218.1-125.925l131.5-75.921l9.984,17.297l-17.545,10.131L232.032,526.871L179.249,435.446z M239.165,539.225l414.868-239.523
	l17.544-10.131l52.784,91.424L291.95,630.648L239.165,539.225z M351.865,734.43l-52.785-91.428l432.414-249.649l52.784,91.424
	l-25.742,14.86L351.865,734.43z M376.57,996.91c-14.531,8.393-31.022,12.826-47.693,12.826h-0.002
	c-34.09,0-65.845-18.32-82.873-47.809c-26.349-45.646-10.655-104.215,34.986-130.566l82.775-47.793l15.604,27.025l32.186,55.754
	C437.907,911.988,422.209,970.561,376.57,996.91z M821.855,739.822L423.416,969.863c0.443-0.746,0.86-1.512,1.282-2.27
	c0.139-0.25,0.285-0.498,0.421-0.744c0.722-1.326,1.408-2.662,2.074-4.016c0.203-0.41,0.397-0.822,0.594-1.234
	c0.546-1.141,1.069-2.285,1.577-3.445c0.126-0.289,0.26-0.576,0.385-0.865c0.591-1.389,1.146-2.783,1.678-4.189
	c0.155-0.41,0.309-0.824,0.456-1.238c0.428-1.172,0.836-2.348,1.225-3.533c0.104-0.328,0.216-0.65,0.32-0.979
	c0.456-1.438,0.877-2.881,1.276-4.34c0.106-0.402,0.208-0.805,0.316-1.215c0.312-1.203,0.604-2.41,0.879-3.621
	c0.079-0.355,0.167-0.709,0.239-1.064c0.316-1.479,0.603-2.961,0.858-4.451c0.066-0.389,0.125-0.785,0.19-1.174
	c0.198-1.229,0.375-2.461,0.528-3.697c0.047-0.379,0.103-0.754,0.147-1.139c0.176-1.508,0.315-3.016,0.43-4.531
	c0.031-0.373,0.046-0.744,0.07-1.119c0.084-1.25,0.143-2.506,0.178-3.764c0.014-0.393,0.03-0.791,0.036-1.188
	c0.03-1.523,0.029-3.053-0.006-4.578c-0.008-0.348-0.028-0.697-0.037-1.045c-0.039-1.273-0.106-2.543-0.189-3.816
	c-0.028-0.41-0.052-0.818-0.083-1.23c-0.12-1.529-0.27-3.061-0.454-4.596c-0.039-0.312-0.086-0.621-0.125-0.932
	c-0.169-1.291-0.359-2.582-0.576-3.875c-0.069-0.418-0.137-0.836-0.207-1.256c-0.274-1.529-0.574-3.055-0.917-4.578
	c-0.061-0.268-0.129-0.537-0.19-0.801c-0.304-1.316-0.635-2.625-0.989-3.93c-0.113-0.422-0.224-0.842-0.344-1.262
	c-0.432-1.514-0.885-3.029-1.386-4.535c-0.069-0.205-0.147-0.418-0.219-0.627c-0.449-1.334-0.933-2.66-1.44-3.988
	c-0.158-0.418-0.318-0.838-0.485-1.254c-0.59-1.492-1.204-2.979-1.866-4.453c-0.062-0.146-0.134-0.279-0.198-0.422
	c-0.617-1.365-1.271-2.715-1.949-4.061c-0.206-0.41-0.414-0.816-0.622-1.223c-0.742-1.422-1.5-2.84-2.31-4.242
	c-0.026-0.043-0.044-0.088-0.071-0.131l-4.994-8.65l432.409-249.65l10.323,17.879C881.221,663.424,864.154,715.402,821.855,739.822z
	"/>
</svg>
