<?xml version="1.0" encoding="utf-8"?>
<!DOCTYPE svg PUBLIC "-//W3C//DTD SVG 1.1//EN" "http://www.w3.org/Graphics/SVG/1.1/DTD/svg11.dtd">
<!-- 2016 (c) Jan T. Sott | Licensed under the CC-BY-SA 4.0 license | https://github.com/idleberg/applescript-svg-icon -->
<svg version="1.1" id="applescript" xmlns="http://www.w3.org/2000/svg" xmlns:xlink="http://www.w3.org/1999/xlink" x="0px"
	 y="0px" width="1024px" height="1024px" viewBox="0 0 1024 1024" enable-background="new 0 0 1024 1024" xml:space="preserve">
<path id="outlines" d="M874.545,612.672l-10.875-18.889l0.018-0.008L803.77,489.999l-59.918-103.779l-4.725-8.195l-2.404-4.16
	l-59.918-103.779l-9.984-17.295l82.771-47.791c25.408-14.671,43.59-38.36,51.182-66.701c7.596-28.342,3.699-57.943-10.973-83.354
	C770.233,21.053,733.742,0,694.574,0c-19.178,0-38.139,5.096-54.832,14.735l-88.953,51.358l-0.004-0.006L194.981,271.519v0.001
	l-0.014,0.005l0,0c-25.403,14.667-43.582,38.354-51.172,66.697c-7.596,28.341-3.703,57.943,10.972,83.353l4.993,8.65l0,0
	l67.054,116.132l52.779,91.426l0,0l59.921,103.775l17.114,29.65l-82.77,47.793c-52.458,30.283-70.491,97.598-40.208,150.055
	c19.563,33.891,56.053,54.939,95.226,54.941h0.003c19.171,0,38.133-5.094,54.828-14.732c0.007-0.006,0.02-0.012,0.028-0.014
	l445.252-257.076C877.727,724.041,897.311,664.066,874.545,612.672z M844.196,588.557l-25.744,14.859L411.784,838.209
	l-42.797-74.131h-0.001L359,746.783l406.672-234.791l25.74-14.862L844.196,588.557z M646.875,27.091
	c14.533-8.39,31.021-12.824,47.699-12.824c34.086,0,65.842,18.318,82.869,47.809c12.77,22.108,16.156,47.866,9.547,72.528
	c-6.607,24.661-22.426,45.272-44.531,58.038L344.756,422.253c12.193-20.747,17.357-45.212,14.144-69.635
	c-0.815-6.201-2.176-12.396-4.094-18.53l0.146-0.085l-2.084-5.591c-0.009-0.021-0.017-0.046-0.029-0.065
	c-0.003-0.007-0.006-0.016-0.008-0.023l-2.936-7.875l-0.285,0.166c-1.396-3.027-2.915-5.997-4.579-8.888
	c-19.568-33.887-56.056-54.939-95.227-54.939c-0.265,0-0.52,0-0.786,0.003L646.875,27.091z M167.121,414.448
	c-12.764-22.112-16.151-47.871-9.547-72.532c6.609-24.662,22.428-45.274,44.535-58.039c14.527-8.389,31.021-12.824,47.695-12.824
	c7.458,0,14.801,0.876,21.903,2.556c25.371,5.995,47.665,22.215,60.962,45.254c0.764,1.322,1.483,2.667,2.182,4.025
	c0.207,0.412,0.411,0.831,0.617,1.246c0.499,0.997,0.979,2,1.433,3.012c0.099,0.212,0.193,0.427,0.284,0.641l-72.995,42.146
	l-92.074,53.163L167.121,414.448z M179.25,435.447l63.622-36.733l99.227-57.287c0.005,0.021,0.013,0.042,0.023,0.064
	c0.146,0.535,0.268,1.074,0.406,1.611c0.208,0.81,0.426,1.619,0.611,2.43c0.137,0.597,0.25,1.193,0.376,1.794
	c0.158,0.755,0.325,1.509,0.459,2.265c0.115,0.617,0.207,1.234,0.31,1.85c0.122,0.738,0.246,1.476,0.349,2.213
	c0.087,0.628,0.16,1.256,0.234,1.885c0.088,0.729,0.177,1.455,0.245,2.182c0.061,0.631,0.109,1.266,0.156,1.898
	c0.057,0.723,0.106,1.445,0.146,2.167c0.035,0.635,0.057,1.269,0.078,1.901c0.027,0.719,0.044,1.436,0.052,2.153
	c0.005,0.634,0.004,1.269-0.001,1.901c-0.008,0.715-0.021,1.431-0.041,2.146c-0.022,0.627-0.046,1.26-0.082,1.887
	c-0.033,0.714-0.084,1.428-0.137,2.142c-0.047,0.625-0.094,1.248-0.156,1.872c-0.068,0.714-0.146,1.426-0.232,2.139
	c-0.071,0.617-0.146,1.233-0.229,1.846c-0.094,0.717-0.208,1.429-0.325,2.142c-0.098,0.604-0.191,1.211-0.3,1.813
	c-0.129,0.717-0.276,1.435-0.423,2.151c-0.12,0.588-0.238,1.181-0.373,1.767c-0.161,0.729-0.343,1.453-0.523,2.179
	c-0.145,0.565-0.272,1.133-0.429,1.696c-0.201,0.756-0.428,1.504-0.65,2.252c-0.152,0.527-0.299,1.056-0.461,1.578
	c-0.268,0.846-0.561,1.684-0.85,2.521c-0.143,0.417-0.272,0.839-0.425,1.256c-0.444,1.242-0.918,2.472-1.421,3.695
	c-0.14,0.343-0.295,0.679-0.44,1.019c-0.378,0.883-0.749,1.764-1.151,2.635c-0.22,0.487-0.465,0.967-0.691,1.45
	c-0.343,0.716-0.686,1.435-1.046,2.144c-0.269,0.518-0.546,1.029-0.822,1.541c-0.353,0.662-0.704,1.326-1.071,1.979
	c-0.296,0.526-0.607,1.044-0.915,1.565c-0.376,0.628-0.741,1.257-1.126,1.878c-0.328,0.524-0.668,1.042-1.003,1.562
	c-0.392,0.604-0.788,1.206-1.188,1.801c-0.354,0.52-0.72,1.029-1.083,1.539c-0.414,0.582-0.829,1.162-1.256,1.733
	c-0.381,0.507-0.768,1.009-1.154,1.513c-0.44,0.562-0.879,1.121-1.333,1.672c-0.403,0.496-0.806,0.985-1.218,1.473
	c-0.461,0.543-0.929,1.082-1.401,1.617c-0.426,0.479-0.859,0.957-1.29,1.429c-0.485,0.524-0.978,1.044-1.479,1.56
	c-0.443,0.463-0.896,0.924-1.353,1.379c-0.508,0.508-1.036,1.01-1.562,1.51c-0.464,0.441-0.929,0.884-1.401,1.313
	c-0.544,0.497-1.097,0.981-1.658,1.465c-0.478,0.417-0.954,0.839-1.442,1.246c-0.579,0.486-1.174,0.954-1.766,1.427
	c-0.488,0.39-0.972,0.782-1.471,1.162c-0.623,0.479-1.266,0.942-1.906,1.406c-0.486,0.355-0.967,0.715-1.459,1.061
	c-0.705,0.494-1.427,0.967-2.149,1.441c-0.447,0.297-0.893,0.604-1.347,0.896c-1.036,0.658-2.09,1.291-3.156,1.916
	c-0.15,0.089-0.303,0.187-0.453,0.276l7.134,12.354l0,0l0,0l0,0l0.008-0.006l0.026-0.01l218.097-125.927l131.5-75.921l9.984,17.297
	l-17.545,10.13L232.033,526.873L179.25,435.447z M239.166,539.225l414.868-239.523l17.545-10.13l52.783,91.424L291.951,630.65
	L239.166,539.225z M351.866,734.43l-52.785-91.428l432.414-249.648l52.783,91.424l-25.742,14.859L351.866,734.43z M376.57,996.91
	c-14.531,8.393-31.022,12.826-47.693,12.826h-0.002c-34.09,0-65.845-18.32-82.872-47.807
	c-26.349-45.646-10.656-104.215,34.986-130.568l82.775-47.791l15.604,27.025l32.186,55.754
	C437.908,911.988,422.21,970.561,376.57,996.91z M821.854,739.822L423.417,969.863c0.444-0.744,0.859-1.51,1.282-2.27
	c0.139-0.25,0.285-0.498,0.421-0.742c0.722-1.328,1.408-2.664,2.074-4.018c0.203-0.408,0.397-0.822,0.594-1.232
	c0.546-1.143,1.069-2.285,1.576-3.447c0.126-0.287,0.26-0.574,0.385-0.863c0.592-1.389,1.146-2.783,1.678-4.189
	c0.156-0.408,0.311-0.822,0.456-1.236c0.428-1.172,0.836-2.35,1.224-3.533c0.103-0.326,0.215-0.65,0.32-0.98
	c0.456-1.438,0.878-2.879,1.277-4.34c0.104-0.4,0.207-0.803,0.315-1.215c0.312-1.205,0.605-2.41,0.88-3.623
	c0.078-0.354,0.167-0.707,0.239-1.062c0.316-1.479,0.602-2.961,0.858-4.453c0.066-0.387,0.125-0.785,0.191-1.172
	c0.198-1.229,0.375-2.461,0.528-3.699c0.046-0.379,0.101-0.754,0.147-1.141c0.177-1.506,0.316-3.014,0.431-4.529
	c0.031-0.375,0.046-0.744,0.071-1.119c0.085-1.25,0.143-2.506,0.178-3.764c0.014-0.393,0.029-0.791,0.035-1.189
	c0.031-1.521,0.031-3.051-0.005-4.578c-0.008-0.346-0.028-0.697-0.038-1.043c-0.038-1.273-0.104-2.543-0.189-3.818
	c-0.028-0.41-0.051-0.818-0.083-1.229c-0.12-1.531-0.27-3.061-0.454-4.594c-0.038-0.314-0.086-0.623-0.125-0.932
	c-0.169-1.293-0.359-2.584-0.576-3.875c-0.069-0.42-0.137-0.836-0.207-1.26c-0.273-1.525-0.573-3.053-0.918-4.576
	c-0.061-0.268-0.129-0.537-0.19-0.801c-0.304-1.314-0.634-2.625-0.989-3.932c-0.111-0.422-0.222-0.842-0.343-1.262
	c-0.434-1.512-0.885-3.029-1.388-4.533c-0.069-0.207-0.147-0.418-0.218-0.627c-0.448-1.332-0.933-2.66-1.441-3.988
	c-0.157-0.416-0.318-0.838-0.485-1.256c-0.59-1.492-1.204-2.979-1.864-4.453c-0.064-0.145-0.136-0.277-0.2-0.422
	c-0.616-1.363-1.271-2.713-1.948-4.059c-0.206-0.408-0.414-0.816-0.623-1.223c-0.742-1.422-1.5-2.84-2.31-4.24
	c-0.026-0.043-0.044-0.09-0.071-0.133l-4.994-8.648l432.407-249.65l10.324,17.879C881.221,663.426,864.153,715.402,821.854,739.822z
	"/>
</svg>
